bicep_curl
version=1
nRows=181
nColumns=3
inDegrees=yes

# SIMM Motion File Header:
name bicep_curl
datacolumns 3
datarows 181
otherdata 1
range 0.0000 0.1800
endheader
time	/jointset/r_shoulder/r_shoulder_elev/value	/jointset/r_elbow/r_elbow_flex/value
0.0000	0.0000	17.2200
0.0010	0.0000	17.2143
0.0020	0.0000	17.2085
0.0030	0.0000	17.2028
0.0040	0.0000	17.1970
0.0050	0.0000	17.1913
0.0060	0.0000	17.1856
0.0070	0.0000	17.1798
0.0080	0.0000	17.1741
0.0090	0.0000	17.1683
0.0100	0.0000	17.1626
0.0110	0.0000	17.1569
0.0120	0.0000	17.1511
0.0130	0.0000	17.1454
0.0140	0.0000	17.1396
0.0150	0.0000	17.1339
0.0160	0.0000	17.1282
0.0170	0.0000	17.1224
0.0180	0.0000	17.1167
0.0190	0.0000	17.1109
0.0200	0.0000	17.1052
0.0210	0.0000	17.0995
0.0220	0.0000	17.0937
0.0230	0.0000	17.0880
0.0240	0.0000	17.0822
0.0250	0.0000	17.0765
0.0260	0.0000	17.0708
0.0270	0.0000	17.0650
0.0280	0.0000	17.0593
0.0290	0.0000	17.0535
0.0300	0.0000	17.0478
0.0310	0.0000	17.0421
0.0320	0.0000	17.0363
0.0330	0.0000	17.0306
0.0340	0.0000	17.0248
0.0350	0.0000	17.0191
0.0360	0.0000	17.0134
0.0370	0.0000	17.0076
0.0380	0.0000	17.0019
0.0390	0.0000	16.9961
0.0400	0.0000	16.9904
0.0410	0.0000	16.9847
0.0420	0.0000	16.9789
0.0430	0.0000	16.9732
0.0440	0.0000	16.9674
0.0450	0.0000	16.9617
0.0460	0.0000	16.9560
0.0470	0.0000	16.9502
0.0480	0.0000	16.9445
0.0490	0.0000	16.9387
0.0500	0.0000	16.9330
0.0510	0.0000	16.9273
0.0520	0.0000	16.9215
0.0530	0.0000	16.9158
0.0540	0.0000	16.9100
0.0550	0.0000	16.9043
0.0560	0.0000	16.8986
0.0570	0.0000	16.8928
0.0580	0.0000	16.8871
0.0590	0.0000	16.8813
0.0600	0.0000	16.8756
0.0610	0.0000	16.8699
0.0620	0.0000	16.8641
0.0630	0.0000	16.8584
0.0640	0.0000	16.8526
0.0650	0.0000	16.8469
0.0660	0.0000	16.8412
0.0670	0.0000	16.8354
0.0680	0.0000	16.8297
0.0690	0.0000	16.8239
0.0700	0.0000	16.8182
0.0710	0.0000	16.8125
0.0720	0.0000	16.8067
0.0730	0.0000	16.8010
0.0740	0.0000	16.7952
0.0750	0.0000	16.7895
0.0760	0.0000	16.7838
0.0770	0.0000	16.7780
0.0780	0.0000	16.7723
0.0790	0.0000	16.7665
0.0800	0.0000	16.7608
0.0810	0.0000	16.7551
0.0820	0.0000	16.7493
0.0830	0.0000	16.7436
0.0840	0.0000	16.7378
0.0850	0.0000	16.7321
0.0860	0.0000	16.7264
0.0870	0.0000	16.7206
0.0880	0.0000	16.7149
0.0890	0.0000	16.7091
0.0900	0.0000	16.7034
0.0910	0.0000	16.6977
0.0920	0.0000	16.6919
0.0930	0.0000	16.6862
0.0940	0.0000	16.6804
0.0950	0.0000	16.6747
0.0960	0.0000	16.6690
0.0970	0.0000	16.6632
0.0980	0.0000	16.6575
0.0990	0.0000	16.6517
0.1000	0.0000	16.6460
0.1010	0.0000	16.6403
0.1020	0.0000	16.6345
0.1030	0.0000	16.6288
0.1040	0.0000	16.6230
0.1050	0.0000	16.6173
0.1060	0.0000	16.6116
0.1070	0.0000	16.6058
0.1080	0.0000	16.6001
0.1090	0.0000	16.5943
0.1100	0.0000	16.5886
0.1110	0.0000	16.5829
0.1120	0.0000	16.5771
0.1130	0.0000	16.5714
0.1140	0.0000	16.5656
0.1150	0.0000	16.5599
0.1160	0.0000	16.5542
0.1170	0.0000	16.5484
0.1180	0.0000	16.5427
0.1190	0.0000	16.5369
0.1200	0.0000	16.5312
0.1210	0.0000	16.5255
0.1220	0.0000	16.5197
0.1230	0.0000	16.5140
0.1240	0.0000	16.5082
0.1250	0.0000	16.5025
0.1260	0.0000	16.4968
0.1270	0.0000	16.4910
0.1280	0.0000	16.4853
0.1290	0.0000	16.4795
0.1300	0.0000	16.4738
0.1310	0.0000	16.4681
0.1320	0.0000	16.4623
0.1330	0.0000	16.4566
0.1340	0.0000	16.4508
0.1350	0.0000	16.4451
0.1360	0.0000	16.4394
0.1370	0.0000	16.4336
0.1380	0.0000	16.4279
0.1390	0.0000	16.4221
0.1400	0.0000	16.4164
0.1410	0.0000	16.4107
0.1420	0.0000	16.4049
0.1430	0.0000	16.3992
0.1440	0.0000	16.3934
0.1450	0.0000	16.3877
0.1460	0.0000	16.3820
0.1470	0.0000	16.3762
0.1480	0.0000	16.3705
0.1490	0.0000	16.3647
0.1500	0.0000	16.3590
0.1510	0.0000	16.3533
0.1520	0.0000	16.3475
0.1530	0.0000	16.3418
0.1540	0.0000	16.3360
0.1550	0.0000	16.3303
0.1560	0.0000	16.3246
0.1570	0.0000	16.3188
0.1580	0.0000	16.3131
0.1590	0.0000	16.3073
0.1600	0.0000	16.3016
0.1610	0.0000	16.2959
0.1620	0.0000	16.2901
0.1630	0.0000	16.2844
0.1640	0.0000	16.2786
0.1650	0.0000	16.2729
0.1660	0.0000	16.2672
0.1670	0.0000	16.2614
0.1680	0.0000	16.2557
0.1690	0.0000	16.2499
0.1700	0.0000	16.2442
0.1710	0.0000	16.2385
0.1720	0.0000	16.2327
0.1730	0.0000	16.2270
0.1740	0.0000	16.2212
0.1750	0.0000	16.2155
0.1760	0.0000	16.2098
0.1770	0.0000	16.2040
0.1780	0.0000	16.1983
0.1790	0.0000	16.1925
0.1800	0.0000	16.1868
